# Blender v2.75 (sub 0) OBJ File: 'Cactus3.blend'
# www.blender.org
mtllib Cactus3.mtl
o Cube.001_Cube.004
v -0.000819 0.043049 0.322735
v 0.093687 0.037402 0.377298
v 0.093687 0.018314 0.561742
v -0.000819 0.012667 0.616305
v -0.066046 0.002019 0.653963
v -0.225779 -0.004968 0.561742
v -0.225779 0.014120 0.377298
v -0.066046 0.040196 0.285076
v -0.072516 0.847664 0.125267
v -0.066046 1.354509 0.133785
v 0.027289 0.788184 0.187672
v 0.026302 0.661970 0.182320
v -0.380353 0.847664 0.302997
v -0.356801 1.354509 0.301652
v 0.224709 1.354509 0.301652
v 0.131374 0.788184 0.247765
v -0.066046 0.332262 0.133785
v 0.108448 0.788184 0.047099
v 0.112230 0.661970 0.033488
v -0.356801 0.332262 0.301652
v -0.380353 0.847664 0.658456
v -0.356801 1.354509 0.637387
v -0.241872 1.632208 0.368007
v -0.066046 1.632208 0.266494
v 0.109779 1.632208 0.368007
v 0.136502 0.661970 0.245944
v 0.212533 0.788184 0.107193
v 0.027289 0.547809 0.187672
v 0.108448 0.547809 0.047099
v 0.186259 0.837174 -0.018010
v -0.066046 0.105527 0.285076
v -0.225779 0.105527 0.377298
v -0.356801 0.332262 0.637387
v -0.072516 0.847664 0.836185
v -0.066046 1.354509 0.805254
v -0.241872 1.632208 0.571032
v -0.066046 1.632208 0.672545
v 0.109779 1.632208 0.571032
v 0.224708 1.354509 0.637387
v 0.235320 0.847664 0.302997
v 0.222430 0.661970 0.097113
v 0.254902 0.823117 0.019391
v 0.224709 0.332262 0.301652
v 0.131374 0.547809 0.247765
v 0.212533 0.547809 0.107193
v 0.196977 0.763924 -0.068790
v -0.225779 0.105527 0.561742
v 0.093687 0.105527 0.377298
v -0.066046 0.332262 0.805254
v 0.235320 0.847664 0.658456
v 0.269654 0.749041 -0.029191
v 0.190728 0.691413 -0.080997
v -0.066046 0.105527 0.653963
v 0.224708 0.332262 0.637387
v 0.093687 0.105527 0.561742
v 0.259371 0.677356 -0.043595
v -0.094774 1.632208 0.452934
v -0.066046 1.632208 0.436348
v -0.037319 1.632208 0.452934
v -0.094774 1.632208 0.486106
v -0.037319 1.632208 0.486106
v -0.066046 1.632208 0.502691
v -0.155595 1.698425 0.417819
v -0.066046 1.698425 0.366118
v 0.023503 1.698425 0.417819
v -0.155595 1.698425 0.521221
v 0.023503 1.698425 0.521221
v -0.066046 1.698425 0.572922
v -0.066046 1.651126 0.469520
vt 0.954312 0.919985
vt 0.954318 0.920092
vt 0.950356 0.926387
vt 0.950488 0.926215
vt 0.950314 0.926358
vt 0.950156 0.926573
vt 0.949768 0.922073
vt 0.949679 0.921786
vt 0.949315 0.922278
vt 0.949318 0.922387
vt 0.948902 0.919873
vt 0.949111 0.919860
vt 0.949155 0.919832
vt 0.949110 0.919750
vt 0.949205 0.926408
vt 0.950785 0.926280
vt 0.950957 0.926039
vt 0.950734 0.926165
vt 0.950550 0.926437
vt 0.949869 0.927249
vt 0.950179 0.926728
vt 0.949874 0.926830
vt 0.949546 0.927259
vt 0.948404 0.924325
vt 0.948583 0.924327
vt 0.948513 0.924416
vt 0.948396 0.924406
vt 0.949855 0.924327
vt 0.950033 0.924325
vt 0.950041 0.924406
vt 0.949925 0.924416
vt 0.944420 0.920845
vt 0.944436 0.920876
vt 0.949036 0.926247
vt 0.949054 0.926276
vt 0.949796 0.926003
vt 0.949742 0.926021
vt 0.947432 0.921624
vt 0.947210 0.921924
vt 0.947388 0.921922
vt 0.947468 0.921725
vt 0.950055 0.927010
vt 0.950142 0.926538
vt 0.949731 0.927038
vt 0.950577 0.926173
vt 0.950383 0.926318
vt 0.950254 0.926555
vt 0.946997 0.924595
vt 0.946911 0.924639
vt 0.951527 0.924638
vt 0.951440 0.924595
vt 0.949265 0.926426
vt 0.950571 0.922419
vt 0.950946 0.922447
vt 0.950748 0.922357
vt 0.949384 0.926276
vt 0.949402 0.926247
vt 0.949461 0.925785
vt 0.949510 0.925743
vt 0.949404 0.925756
vt 0.949023 0.925475
vt 0.948944 0.925491
vt 0.948996 0.925584
vt 0.949061 0.925561
vt 0.947699 0.924028
vt 0.947687 0.924052
vt 0.948341 0.923196
vt 0.948450 0.923518
vt 0.948789 0.923707
vt 0.948747 0.923536
vt 0.951228 0.921924
vt 0.951005 0.921624
vt 0.950969 0.921726
vt 0.951049 0.921922
vt 0.949467 0.925271
vt 0.949449 0.925262
vt 0.950643 0.926324
vt 0.950857 0.926107
vt 0.950446 0.926480
vt 0.950269 0.925006
vt 0.950392 0.925235
vt 0.950579 0.925376
vt 0.950496 0.925192
vt 0.947448 0.924642
vt 0.947735 0.924712
vt 0.947672 0.924554
vt 0.947500 0.924533
vt 0.950702 0.924712
vt 0.950989 0.924642
vt 0.950938 0.924533
vt 0.950765 0.924554
vt 0.949545 0.924304
vt 0.949874 0.924733
vt 0.950179 0.924835
vt 0.947221 0.920064
vt 0.947127 0.920090
vt 0.947525 0.920066
vt 0.947309 0.920060
vt 0.948638 0.925988
vt 0.948657 0.926035
vt 0.949111 0.925477
vt 0.949048 0.925419
vt 0.951116 0.924688
vt 0.951166 0.924574
vt 0.951209 0.924548
vt 0.949461 0.923260
vt 0.949523 0.923351
vt 0.949636 0.923457
vt 0.949587 0.923414
vt 0.949774 0.925510
vt 0.949718 0.925476
vt 0.949784 0.925573
vt 0.949988 0.923518
vt 0.950097 0.923197
vt 0.949690 0.923536
vt 0.949649 0.923707
vt 0.948950 0.925304
vt 0.948989 0.925261
vt 0.950432 0.925093
vt 0.950648 0.925348
vt 0.950856 0.925479
vt 0.949730 0.924526
vt 0.950142 0.925026
vt 0.950055 0.924554
vt 0.948830 0.925481
vt 0.948854 0.925560
vt 0.948931 0.925443
vt 0.949596 0.925677
vt 0.948914 0.923351
vt 0.948976 0.923260
vt 0.948801 0.923457
vt 0.948664 0.925566
vt 0.948696 0.925546
vt 0.912343 0.061252
vt 0.912516 0.061273
vt 0.911831 0.061291
vt 0.913240 0.061125
vt 0.913356 0.061135
vt 0.915609 0.061273
vt 0.915782 0.061252
vt 0.916328 0.061319
vt 0.914769 0.061135
vt 0.914885 0.061125
vn 0.535300 0.012200 -0.844500
vn -0.499900 0.020900 -0.865800
vn 0.500000 0.000000 -0.866000
vn 0.501500 -0.013100 -0.865100
vn -0.865700 0.028000 -0.499800
vn -0.499900 -0.020600 -0.865800
vn -0.998900 0.046400 -0.000000
vn -0.462000 0.382400 -0.800200
vn 0.462000 0.382400 -0.800200
vn 0.463700 0.012200 -0.885900
vn 0.000000 1.000000 0.000000
vn -0.865600 -0.030900 -0.499800
vn -0.432900 -0.500300 -0.749800
vn -0.999000 -0.045600 0.000000
vn -0.499100 0.059100 0.864500
vn -0.924000 0.382400 0.000000
vn 0.924000 0.382400 -0.000000
vn 0.865700 0.028000 0.499800
vn 0.000000 -1.000000 -0.000000
vn -0.828900 0.040300 -0.558000
vn -0.771600 0.143900 -0.619600
vn -0.144100 0.910900 0.386700
vn -0.865800 -0.500300 0.000000
vn 0.432900 -0.500300 -0.749800
vn -0.500000 -0.000000 -0.866000
vn -0.499200 -0.058200 0.864600
vn 0.499500 0.046400 0.865100
vn -0.462000 0.382400 0.800200
vn 0.462000 0.382400 0.800200
vn 0.999800 0.020900 0.000000
vn 0.498400 -0.013100 -0.866800
vn 0.865600 -0.030900 0.499800
vn 0.922400 0.000400 0.386200
vn 0.279400 -0.747400 -0.602700
vn 0.484400 0.545200 -0.684200
vn -0.432900 -0.500300 0.749800
vn -1.000000 -0.000000 -0.000000
vn 0.865800 -0.500300 0.000000
vn 0.499500 -0.045600 0.865100
vn 0.999800 -0.020600 0.000000
vn 0.964200 -0.110300 0.241100
vn 0.492100 0.103100 -0.864400
vn 0.432900 -0.500300 0.749800
vn -0.500000 0.000000 0.866000
vn 1.000000 0.000000 0.000000
vn 0.500000 -0.000000 0.866000
vn -0.368200 -0.676500 0.637800
vn -0.736500 -0.676500 0.000000
vn -0.368200 -0.676500 -0.637800
vn 0.368200 -0.676500 0.637800
vn 0.736500 -0.676500 0.000000
vn 0.368200 -0.676500 -0.637800
vn -0.233500 0.884200 -0.404500
vn -0.467000 0.884200 0.000000
vn -0.233500 0.884200 0.404500
vn 0.233500 0.884200 -0.404500
vn 0.467000 0.884200 0.000000
vn 0.233500 0.884200 0.404500
usemtl Material.004
s off
f 10/1/1 11/1/1 12/2/1 9/1/1
f 13/3/2 14/4/2 10/5/2 9/6/2
f 10/7/3 15/8/3 16/9/3 11/10/3
f 9/11/4 12/12/4 28/13/4 17/14/4
f 12/15/5 11/15/5 18/15/5 19/15/5
f 20/16/6 13/17/6 9/18/6 17/19/6
f 21/20/7 22/21/7 14/22/7 13/23/7
f 10/24/8 14/25/8 23/26/8 24/27/8
f 15/28/9 10/29/9 24/30/9 25/31/9
f 16/32/10 15/32/10 40/32/10 26/33/10
f 11/34/11 16/35/11 27/35/11 18/35/11
f 28/36/12 12/36/12 19/36/12 29/37/12
f 20/38/13 17/39/13 31/40/13 32/41/13
f 33/42/14 21/19/14 13/43/14 20/44/14
f 34/19/15 35/45/15 22/46/15 21/47/15
f 14/48/16 22/49/16 36/48/16 23/48/16
f 25/31/11 24/30/11 58/30/11 59/31/11
f 39/50/17 15/51/17 25/50/17 38/50/17
f 16/15/18 26/15/18 41/52/18 27/15/18
f 43/53/3 17/54/3 28/54/3 44/55/3
f 44/56/19 28/57/19 29/56/19 45/56/19
f 19/58/20 46/59/20 52/59/20 29/60/20
f 46/61/21 19/62/21 18/63/21 30/64/21
f 30/65/22 18/66/22 27/65/22 42/65/22
f 33/67/23 20/68/23 32/69/23 47/70/23
f 17/71/24 43/72/24 48/73/24 31/74/24
f 7/75/25 32/76/25 31/75/25 8/75/25
f 49/77/26 34/78/26 21/18/26 33/79/26
f 50/80/27 39/81/27 35/82/27 34/83/27
f 22/84/28 35/85/28 37/86/28 36/87/28
f 35/88/29 39/89/29 38/90/29 37/91/29
f 40/92/30 15/93/30 39/94/30 50/28/30
f 26/95/31 40/96/31 43/97/31 44/98/31
f 26/99/32 44/100/32 45/100/32 41/100/32
f 42/61/33 27/64/33 41/101/33 51/102/33
f 29/103/34 52/104/34 56/105/34 45/104/34
f 46/63/35 30/63/35 42/64/35 51/63/35
f 49/106/36 33/107/36 47/108/36 53/109/36
f 6/110/37 47/111/37 32/111/37 7/112/37
f 43/113/38 54/114/38 55/115/38 48/116/38
f 31/117/3 48/118/3 2/118/3 1/118/3 8/117/3
f 54/119/39 50/120/39 34/121/39 49/120/39
f 43/122/40 40/123/40 50/83/40 54/124/40
f 51/125/41 41/126/41 45/61/41 56/127/41
f 52/128/42 46/128/42 51/128/42 56/128/42
f 54/129/43 49/130/43 53/129/43 55/131/43
f 5/75/44 53/76/44 47/75/44 6/75/44
f 2/132/45 48/133/45 55/133/45 3/133/45
f 55/117/46 53/118/46 5/118/46 4/118/46 3/117/46
f 60/134/47 62/135/47 68/135/47 66/134/47
f 24/27/11 23/26/11 57/26/11 58/27/11
f 37/91/11 38/90/11 61/90/11 62/91/11
f 38/50/11 25/50/11 59/50/11 61/50/11
f 23/48/11 36/48/11 60/48/11 57/48/11
f 36/87/11 37/86/11 62/86/11 60/87/11
f 57/136/48 60/136/48 66/136/48 63/136/48
f 58/137/49 57/138/49 63/138/49 64/137/49
f 62/139/50 61/140/50 67/140/50 68/139/50
f 61/141/51 59/141/51 65/141/51 67/141/51
f 59/142/52 58/143/52 64/143/52 65/142/52
f 68/139/53 67/140/53 69/139/53
f 67/141/54 65/141/54 69/141/54
f 65/142/55 64/143/55 69/142/55
f 66/134/56 68/135/56 69/134/56
f 63/136/57 66/136/57 69/136/57
f 64/137/58 63/138/58 69/137/58
